<?xml version="1.0" encoding="UTF-8" standalone="no"?>
<svg
   width="22"
   height="22"
   viewBox="0 0 22 22"
   fill="none"
   version="1.1"
   id="svg1"
   sodipodi:docname="braces.svg"
   inkscape:version="1.3.2 (091e20ef0f, 2023-11-25, custom)"
   xmlns:inkscape="http://www.inkscape.org/namespaces/inkscape"
   xmlns:sodipodi="http://sodipodi.sourceforge.net/DTD/sodipodi-0.dtd"
   xmlns="http://www.w3.org/2000/svg"
   xmlns:svg="http://www.w3.org/2000/svg">
  <defs
     id="defs1" />
  <sodipodi:namedview
     id="namedview1"
     pagecolor="#ffffff"
     bordercolor="#000000"
     borderopacity="0.25"
     inkscape:showpageshadow="2"
     inkscape:pageopacity="0.0"
     inkscape:pagecheckerboard="0"
     inkscape:deskcolor="#d1d1d1"
     inkscape:zoom="24.333333"
     inkscape:cx="13.952055"
     inkscape:cy="14.383562"
     inkscape:window-width="2560"
     inkscape:window-height="1372"
     inkscape:window-x="1920"
     inkscape:window-y="32"
     inkscape:window-maximized="1"
     inkscape:current-layer="svg1" />
  <path
     d="M 8.3696505,4.0971713 6.7202228,4.097024 c -1.1055355,0 0,3.390642 -1.1055355,4.6355949 -0.5132629,0.5779631 -2.5530144,2.2272161 -2.5530144,2.2272161 0,0 2.0276965,1.51309 2.5530144,2.010829 1.1055355,1.047427 0,4.932182 1.1055355,4.932182 l 1.6494277,1.3e-4 m 5.2606985,-1.3e-4 1.649428,1.3e-4 c 1.105535,0 0,-3.39066 1.105535,-4.635569 0.513263,-0.578006 2.553015,-2.227217 2.553015,-2.227217 0,0 -2.027697,-1.513133 -2.553015,-2.010827 -1.105535,-1.047471 0,-4.9321917 -1.105535,-4.9321917 L 13.630349,4.097024"
     stroke="#7b7d85"
     stroke-width="1.51776"
     stroke-linecap="round"
     stroke-linejoin="round"
     id="path1"
     sodipodi:nodetypes="cccccccccccccc" />
</svg>
