<svg width="48" height="48" viewBox="0 0 48 48" fill="none" xmlns="http://www.w3.org/2000/svg">
<path d="M15.6283 8.08188L14.1307 8.08154C11.5813 8.08154 14.1307 18.2065 11.5813 21.0774C10.3977 22.4102 8 23.9074 8 23.9074C8 23.9074 10.3699 25.0906 11.5813 26.2384C14.1307 28.6538 11.5813 39.9182 14.1307 39.9182L15.6283 39.9185M32.3717 39.9182L33.8693 39.9185C36.4187 39.9185 33.8693 29.7935 36.4187 26.9227C37.6023 25.5898 40 24.0927 40 24.0927C40 24.0927 37.6301 22.9094 36.4187 21.7617C33.8693 19.3462 36.4187 8.08188 33.8693 8.08188L32.3717 8.08154" stroke="#7B7D85" stroke-width="3.5" stroke-linecap="round" stroke-linejoin="round"/>
</svg>
