<?xml version="1.0" encoding="UTF-8" standalone="no"?>
<svg
   height="16"
   width="16"
   version="1.1"
   id="svg14"
   sodipodi:docname="folder.svg"
   inkscape:version="1.3.2 (091e20ef0f, 2023-11-25, custom)"
   xmlns:inkscape="http://www.inkscape.org/namespaces/inkscape"
   xmlns:sodipodi="http://sodipodi.sourceforge.net/DTD/sodipodi-0.dtd"
   xmlns:xlink="http://www.w3.org/1999/xlink"
   xmlns="http://www.w3.org/2000/svg"
   xmlns:svg="http://www.w3.org/2000/svg"
   xmlns:osb="http://www.openswatchbook.org/uri/2009/osb">
  <sodipodi:namedview
     id="namedview16"
     pagecolor="#ffffff"
     bordercolor="#000000"
     borderopacity="0.25"
     inkscape:showpageshadow="2"
     inkscape:pageopacity="0.0"
     inkscape:pagecheckerboard="0"
     inkscape:deskcolor="#d1d1d1"
     showgrid="true"
     inkscape:zoom="64.1875"
     inkscape:cx="5.2736125"
     inkscape:cy="7.9922103"
     inkscape:window-width="2560"
     inkscape:window-height="1372"
     inkscape:window-x="1920"
     inkscape:window-y="32"
     inkscape:window-maximized="1"
     inkscape:current-layer="svg14">
    <inkscape:grid
       type="xygrid"
       id="grid561"
       originx="0"
       originy="0"
       spacingy="1"
       spacingx="1"
       units="px"
       visible="true" />
  </sodipodi:namedview>
  <defs
     id="defs6">
    <linearGradient
       id="a"
       osb:paint="solid">
      <stop
         offset="0"
         stop-color="#afafaf"
         id="stop2" />
    </linearGradient>
    <linearGradient
       xlink:href="#a"
       id="b"
       gradientUnits="userSpaceOnUse"
       gradientTransform="translate(-21.152 -8) scale(.66667)"
       x1="-153.424"
       y1="-84"
       x2="-129.424"
       y2="-84" />
    <linearGradient
       xlink:href="#b-3"
       id="d"
       x1="216.882"
       y1="270"
       x2="328.88199"
       y2="270"
       gradientUnits="userSpaceOnUse"
       gradientTransform="matrix(0.125,0,0,0.125,-26.61,-25.5)" />
    <linearGradient
       id="b-3">
      <stop
         style="stop-color:#0855bd;stop-opacity:1"
         offset="0"
         id="stop248" />
    </linearGradient>
    <linearGradient
       xlink:href="#a-6"
       id="e"
       x1="216.756"
       y1="270"
       x2="328.75601"
       y2="270"
       gradientUnits="userSpaceOnUse"
       gradientTransform="matrix(0.125,0,0,0.125,-25.595,-25.56)" />
    <linearGradient
       id="a-6">
      <stop
         style="stop-color:#3f8ff8;stop-opacity:1"
         offset="0"
         id="stop251" />
    </linearGradient>
    <linearGradient
       xlink:href="#c"
       id="f"
       x1="232"
       y1="236"
       x2="256"
       y2="236"
       gradientUnits="userSpaceOnUse"
       gradientTransform="matrix(0.125,0,0,0.125,-26.5,-26)" />
    <linearGradient
       id="c">
      <stop
         style="stop-color:#1277f7;stop-opacity:1"
         offset="0"
         id="stop245" />
    </linearGradient>
  </defs>
  <path
     style="display:none;fill:url(#d);fill-opacity:1;stroke-width:0.129629"
     d="M 3,2 A 2.495,2.495 0 0 0 0.5,4.5 v 7.988 A 2.505,2.505 0 0 0 3,15 h 9 c 1.385,0 2.5,-1.127 2.5,-2.512 V 7 A 2.499,2.499 0 0 0 12,4.5 C 9.697,4.5 10.224,2 7.39,2 Z"
     id="path259" />
  <path
     id="path261"
     style="fill:#7b7d85;fill-opacity:1;stroke-width:0.129629"
     d="M 3 2 C 1.000002 2 1 4 1 4 L 1 12 C 1 12 1.000002 14 3 14 L 13 14 C 14.999998 14 15 12 15 12 L 15 6 C 15 4.000002 13 4 13 4 C 7.000006 4 8.999997 2 6 2 L 3 2 z M 3 3 L 6 3 C 6.6666657 3 6.6666657 4 6 4 L 3 4 C 2.3333343 4 2.3333343 3 3 3 z M 3.25 5 L 12.75 5 C 13.442499 5 14 5.5575007 14 6.25 L 14 11.75 C 14 12.442499 13.442499 13 12.75 13 L 3.25 13 C 2.5575007 13 2 12.442499 2 11.75 L 2 6.25 C 2 5.5575007 2.5575007 5 3.25 5 z " />
  <path
     id="rect1570"
     style="opacity:0.2;fill:#7b7d85;fill-rule:evenodd;stroke-linecap:round;paint-order:fill markers stroke;stop-color:#000000;fill-opacity:1"
     d="m 4.25,6 h 7.5 C 12.4425,6 13,6.5575 13,7.25 v 3.5 C 13,11.4425 12.4425,12 11.75,12 H 4.25 C 3.5575,12 3,11.4425 3,10.75 V 7.25 C 3,6.5575 3.5575,6 4.25,6 Z" />
</svg>
