<svg width="48" height="48" viewBox="0 0 48 48" fill="none" xmlns="http://www.w3.org/2000/svg">
<path fill-rule="evenodd" clip-rule="evenodd" d="M18.3362 12.6676C19.7788 11.225 20.5875 9.7306 21.0521 8.87207L21.0521 8.87205C21.1854 8.62573 21.2903 8.43176 21.3738 8.30637C21.5658 8.01801 21.698 7.90807 21.9085 7.81787C22.1947 7.69523 22.754 7.56381 23.9038 7.56384C25.0538 7.56387 25.6106 7.69553 25.8938 7.81731C26.1003 7.90613 26.2298 8.0138 26.4199 8.30163C26.5027 8.42712 26.6063 8.62013 26.7377 8.86483L26.7377 8.86485C27.1987 9.72382 28.0016 11.2197 29.4495 12.6675C30.583 13.8011 31.775 14.3072 32.9753 14.4338C33.8795 14.5293 34.7827 14.3911 35.3939 14.2977L35.394 14.2977C35.5039 14.2808 35.6044 14.2655 35.6937 14.2532C36.3972 14.1563 36.6897 14.1818 36.9092 14.2766C37.0959 14.3572 37.5194 14.6204 38.0735 15.7037C38.6513 16.8335 38.6981 17.417 38.6691 17.6981C38.6433 17.9481 38.5393 18.1854 38.1882 18.621C38.0966 18.7346 37.9858 18.8606 37.8625 19.0008L37.8623 19.001C37.0637 19.9086 35.742 21.4108 35.742 23.9999C35.742 26.6756 37.3064 28.0981 38.1557 28.8704C38.2956 28.9976 38.4161 29.1072 38.507 29.2018C38.8371 29.5454 38.8964 29.7076 38.909 29.9056C38.928 30.2057 38.8368 30.8887 38.0937 32.2586C37.3503 33.6291 36.856 33.9964 36.6668 34.0918C36.566 34.1426 36.4549 34.1837 35.9546 34.0627C35.8907 34.0473 35.8085 34.0247 35.7112 33.9979L35.7111 33.9978L35.7111 33.9978C35.2273 33.8647 34.3692 33.6285 33.5284 33.6577C32.3197 33.6995 31.1648 34.2129 30.0453 35.3324C29.0802 36.2975 28.4305 37.1756 27.9265 37.9252C27.7222 38.229 27.5626 38.4768 27.4259 38.6891L27.4258 38.6892L27.4258 38.6892C27.1921 39.052 27.0253 39.311 26.8164 39.5687C26.5681 39.8751 26.359 40.0403 26.0437 40.1638C25.674 40.3085 25.0488 40.4361 23.9038 40.4361C22.747 40.4361 22.1872 40.3057 21.9025 40.1845C21.6965 40.0968 21.5693 39.9917 21.3811 39.7076C21.2983 39.5827 21.1949 39.3905 21.0635 39.1466C20.6017 38.2889 19.7954 36.7916 18.3362 35.3324C17.185 34.1811 15.9701 33.6848 14.7491 33.5856C13.8465 33.5123 12.9395 33.6754 12.3333 33.7845C12.218 33.8052 12.1136 33.824 12.0222 33.8388C11.323 33.9522 11.0612 33.9218 10.876 33.8387C10.7131 33.7656 10.2885 33.4988 9.73266 32.3375C9.15581 31.1323 9.10301 30.5036 9.13539 30.1925C9.1629 29.9282 9.26723 29.6989 9.60184 29.2931C9.69271 29.183 9.80389 29.0604 9.9282 28.9235L9.92823 28.9234C10.7198 28.0511 12.0437 26.5922 12.0437 24C12.0437 21.4055 10.6967 19.924 9.89454 19.0417L9.89453 19.0417C9.76836 18.9029 9.65567 18.7789 9.56381 18.6678C9.21919 18.2509 9.11948 18.0235 9.09493 17.7746C9.06616 17.4829 9.11939 16.8752 9.71558 15.6971C10.2895 14.563 10.7249 14.2861 10.9109 14.204C11.1185 14.1125 11.396 14.0853 12.0867 14.1904C12.1774 14.2042 12.2807 14.2217 12.3947 14.2411C12.9969 14.3432 13.8962 14.4956 14.7908 14.4148C15.9989 14.3057 17.1974 13.8064 18.3362 12.6676ZM23.9038 4.06384C22.5608 4.06381 21.4516 4.20591 20.5301 4.60071C19.5329 5.02795 18.9181 5.67936 18.4605 6.3666C18.1538 6.82733 17.9374 7.23052 17.7279 7.62102L17.7279 7.62103C17.3058 8.40758 16.9114 9.14263 15.8613 10.1927C15.2862 10.7678 14.8459 10.8956 14.4759 10.929C14.0715 10.9655 13.7088 10.9065 13.1333 10.8129L13.1333 10.8129L13.1333 10.8128C12.9772 10.7875 12.8055 10.7595 12.6131 10.7302C11.8325 10.6115 10.6848 10.4785 9.49857 11.0017C8.29091 11.5343 7.36402 12.5926 6.59272 14.1167C5.84364 15.5968 5.49168 16.9 5.61184 18.1182C5.73621 19.3792 6.33956 20.2607 6.86613 20.8977C7.06129 21.1338 7.24119 21.3393 7.40489 21.5263L7.40491 21.5263C8.13581 22.3612 8.54369 22.8271 8.54369 24C8.54369 25.1753 8.14757 25.6283 7.43106 26.4476L7.431 26.4477C7.27038 26.6314 7.09367 26.8334 6.90171 27.0662C6.37739 27.7019 5.78481 28.5752 5.65419 29.8302C5.52844 31.0383 5.85629 32.3456 6.57563 33.8485C7.31601 35.3954 8.2254 36.4853 9.44255 37.0317C10.6374 37.5681 11.8016 37.4203 12.5824 37.2937C12.7772 37.2621 12.9512 37.232 13.1093 37.2046C13.6881 37.1045 14.0558 37.0408 14.4657 37.0741C14.8408 37.1046 15.2841 37.2301 15.8613 37.8072C16.9236 38.8695 17.3202 39.6112 17.7427 40.4014C17.9496 40.7885 18.1628 41.1871 18.4635 41.6409C18.9192 42.3287 19.5326 42.9795 20.5313 43.4047C21.4512 43.7964 22.5602 43.9361 23.9038 43.9361C25.2592 43.9361 26.3757 43.7925 27.3198 43.4228C28.3183 43.0319 28.995 42.4393 29.5354 41.7725C29.8642 41.3669 30.1975 40.8515 30.4969 40.3885L30.497 40.3884C30.6143 40.207 30.7264 40.0337 30.831 39.8781C31.2524 39.2514 31.7618 38.5657 32.5202 37.8072C33.1243 37.2031 33.4725 37.1617 33.6496 37.1556C33.9119 37.1465 34.1048 37.1978 34.4947 37.3015L34.4952 37.3016C34.6635 37.3464 34.8685 37.4009 35.1316 37.4646C35.8854 37.6469 37.0141 37.836 38.2418 37.2174C39.3813 36.6432 40.3044 35.5235 41.1702 33.9275C42.0364 32.3307 42.4824 30.9498 42.4019 29.6837C42.315 28.3154 41.6381 27.409 41.0309 26.777C40.7631 26.4982 40.5272 26.2723 40.322 26.0758C39.5831 25.3683 39.242 25.0417 39.242 23.9999C39.242 22.7972 39.6681 22.2953 40.4034 21.4294L40.4034 21.4293C40.5598 21.2452 40.7301 21.0446 40.9133 20.8173C41.4268 20.1802 42.0225 19.3003 42.1506 18.057C42.2756 16.8447 41.9304 15.5584 41.1896 14.11C40.425 12.6151 39.4994 11.5829 38.297 11.0635C37.1274 10.5583 35.9909 10.6792 35.2162 10.7859C35.0425 10.8098 34.8852 10.8328 34.7405 10.854C34.142 10.9416 33.7608 10.9973 33.3426 10.9532C32.9567 10.9125 32.5038 10.7721 31.9243 10.1927C30.8747 9.14304 30.4824 8.40675 30.0621 7.61784C29.8555 7.23009 29.6421 6.82963 29.3406 6.37301C28.8863 5.68502 28.2739 5.03098 27.2765 4.60204C26.3557 4.20604 25.2466 4.06388 23.9038 4.06384ZM20.1187 23.9999C20.1187 21.9155 21.8084 20.2257 23.8928 20.2257C25.9773 20.2257 27.667 21.9155 27.667 23.9999C27.667 26.0843 25.9773 27.7741 23.8928 27.7741C21.8084 27.7741 20.1187 26.0843 20.1187 23.9999ZM23.8928 16.7257C19.8754 16.7257 16.6187 19.9825 16.6187 23.9999C16.6187 28.0173 19.8754 31.2741 23.8928 31.2741C27.9103 31.2741 31.167 28.0173 31.167 23.9999C31.167 19.9825 27.9103 16.7257 23.8928 16.7257Z" fill="#7B7D85"/>
</svg>
