<svg width="48" height="48" viewBox="0 0 48 48" fill="none" xmlns="http://www.w3.org/2000/svg">
<path d="M8 24C8 27.8817 9.41116 31.6311 11.9706 34.5495C14.53 37.468 18.0631 39.3565 21.9116 39.8631C25.7601 40.3698 29.6616 39.4601 32.8891 37.3035C36.1167 35.1469 38.4501 31.8906 39.4548 28.1411C40.4595 24.3916 40.0668 20.4048 38.35 16.9234C36.6331 13.442 33.7092 10.7034 30.1229 9.21793C26.5367 7.73246 22.5327 7.60138 18.857 8.84912C15.1812 10.0969 12.0845 12.6383 10.1436 16M10.1436 16H15.9333M10.1436 16L9.22957 9.92611M23 17.5272V24.4729L27.6971 29.1701" stroke="#7B7D85" stroke-width="3.5" stroke-linecap="round" stroke-linejoin="round"/>
</svg>
