<?xml version="1.0" encoding="UTF-8" standalone="no"?>
<svg
   width="48"
   height="48"
   viewBox="0 0 48 48"
   fill="none"
   version="1.1"
   id="svg1"
   sodipodi:docname="image.svg"
   inkscape:version="1.3.2 (091e20ef0f, 2023-11-25, custom)"
   xmlns:inkscape="http://www.inkscape.org/namespaces/inkscape"
   xmlns:sodipodi="http://sodipodi.sourceforge.net/DTD/sodipodi-0.dtd"
   xmlns="http://www.w3.org/2000/svg"
   xmlns:svg="http://www.w3.org/2000/svg">
  <defs
     id="defs1" />
  <sodipodi:namedview
     id="namedview1"
     pagecolor="#ffffff"
     bordercolor="#000000"
     borderopacity="0.25"
     inkscape:showpageshadow="2"
     inkscape:pageopacity="0.0"
     inkscape:pagecheckerboard="0"
     inkscape:deskcolor="#d1d1d1"
     showgrid="true"
     inkscape:zoom="15.915601"
     inkscape:cx="23.656035"
     inkscape:cy="28.148482"
     inkscape:window-width="2560"
     inkscape:window-height="1372"
     inkscape:window-x="1920"
     inkscape:window-y="32"
     inkscape:window-maximized="1"
     inkscape:current-layer="svg1">
    <sodipodi:guide
       position="0,48"
       orientation="0,48"
       id="guide1"
       inkscape:locked="false" />
    <sodipodi:guide
       position="48,48"
       orientation="48,0"
       id="guide2"
       inkscape:locked="false" />
    <sodipodi:guide
       position="48,0"
       orientation="0,-48"
       id="guide3"
       inkscape:locked="false" />
    <sodipodi:guide
       position="0,0"
       orientation="-48,0"
       id="guide4"
       inkscape:locked="false" />
    <inkscape:grid
       id="grid4"
       units="px"
       originx="0"
       originy="0"
       spacingx="1"
       spacingy="1"
       empcolor="#0099e5"
       empopacity="0.30196078"
       color="#0099e5"
       opacity="0.14901961"
       empspacing="5"
       dotted="false"
       gridanglex="30"
       gridanglez="30"
       visible="true" />
  </sodipodi:namedview>
  <path
     style="color:#000000;fill:#7b7d85;-inkscape-stroke:none"
     d="m 12.992188,6.2460937 c -3.7117232,0 -6.7460942,3.0343711 -6.7460943,6.7460943 v 22.015624 c 0,3.711723 3.0343711,6.746094 6.7460943,6.746094 h 22.015624 c 3.711723,0 6.746094,-3.034371 6.746094,-6.746094 V 12.992188 c 0,-3.7117232 -3.034371,-6.7460942 -6.746094,-6.7460943 z m 0,3.0000001 h 22.015624 c 2.101616,0 3.746094,1.6444782 3.746094,3.7460942 v 22.015624 c 0,2.101616 -1.644478,3.746094 -3.746094,3.746094 H 12.992188 c -2.101616,0 -3.7460943,-1.644478 -3.7460942,-3.746094 V 12.992188 c 0,-2.101616 1.6444782,-3.7460943 3.7460942,-3.7460942 z"
     id="rect5" />
  <path
     id="path5"
     style="opacity:1;fill:#7b7d85;stroke-width:3"
     d="m 20,17 a 3,3 0 0 1 -3,3 3,3 0 0 1 -3,-3 3,3 0 0 1 3,-3 3,3 0 0 1 3,3 z" />
  <path
     style="color:#000000;fill:#7b7d85;stroke-linecap:round;stroke-linejoin:round;-inkscape-stroke:none"
     d="m 26.744141,21.697266 a 1.50015,1.50015 0 0 0 -1.732422,0.173828 l -16.0000002,14 a 1.5,1.5 0 0 0 -0.140625,2.117187 1.5,1.5 0 0 0 2.1171872,0.140625 l 15.195313,-13.296875 13.072265,7.470703 a 1.5,1.5 0 0 0 2.046875,-0.558593 1.5,1.5 0 0 0 -0.558593,-2.046875 z"
     id="path6" />
</svg>
