<svg width="48" height="48" viewBox="0 0 48 48" fill="none" xmlns="http://www.w3.org/2000/svg">
<path d="M32 12C32 14.2091 33.7909 16 36 16C38.2091 16 40 14.2091 40 12C40 9.79086 38.2091 8 36 8C33.7909 8 32 9.79086 32 12ZM32 12L28.0813 12M16 36C16 33.7909 14.2091 32 12 32C9.79086 32 8 33.7909 8 36C8 38.2091 9.79086 40 12 40C14.2091 40 16 38.2091 16 36ZM16 36C16 36 22.3632 36 22.3632 29.0552C22.3632 12 28.0813 12 28.0813 12M16 12C16 9.79086 14.2091 8 12 8C9.79086 8 8 9.79086 8 12C8 14.2091 9.79086 16 12 16C14.2091 16 16 14.2091 16 12ZM16 12L28.0813 12" stroke="#7B7D85" stroke-width="3.5" stroke-linecap="round" stroke-linejoin="round"/>
</svg>
