<svg width="48" height="48" viewBox="0 0 48 48" fill="none" xmlns="http://www.w3.org/2000/svg">
<circle cx="24" cy="24" r="3" fill="#7B7D85"/>
<path fill-rule="evenodd" clip-rule="evenodd" d="M14.6217 18.5855C14.7829 19.153 14.966 19.7336 15.1709 20.3246C15.3655 19.9662 15.5662 19.6079 15.7728 19.2501C15.9794 18.8922 16.1893 18.5393 16.4024 18.1916C15.7881 18.3097 15.1938 18.4414 14.6217 18.5855ZM13.9647 15.6574C15.4381 15.2898 17.0243 15.0022 18.6917 14.8057C19.6955 13.46 20.7376 12.2301 21.7927 11.1379C21.6194 10.9974 21.4468 10.862 21.2753 10.7319C19.8835 9.67677 18.615 9.01716 17.5518 8.7297C16.4964 8.44435 15.759 8.55076 15.25 8.84464C14.741 9.13852 14.2801 9.72393 13.9996 10.7806C13.7169 11.8451 13.6539 13.2734 13.8718 15.0063C13.8986 15.2199 13.9296 15.437 13.9647 15.6574ZM20.3361 17.6539C19.6591 18.6253 19.0003 19.6598 18.3708 20.7501C17.7413 21.8404 17.1749 22.9281 16.6721 24.0001C17.1749 25.0721 17.7413 26.1598 18.3708 27.2501C19.0003 28.3404 19.6591 29.3748 20.336 30.3462C21.5158 30.4468 22.741 30.5001 24 30.5001C25.259 30.5001 26.4842 30.4468 27.664 30.3462C28.341 29.3748 28.9997 28.3404 29.6292 27.2501C30.2587 26.1598 30.8251 25.0721 31.3279 24.0001C30.8251 22.9281 30.2587 21.8404 29.6292 20.7501C28.9997 19.6598 28.3409 18.6253 27.664 17.6539C26.4842 17.5533 25.259 17.5001 24 17.5001C22.741 17.5001 21.5158 17.5533 20.3361 17.6539ZM25.2315 14.5161C24.8238 14.5055 24.4132 14.5001 24 14.5001C23.5868 14.5001 23.1762 14.5055 22.7685 14.5161C23.1779 14.0431 23.5891 13.5943 24 13.171C24.4109 13.5943 24.8221 14.0431 25.2315 14.5161ZM31.5976 18.1916C31.8107 18.5393 32.0206 18.8922 32.2272 19.2501C32.4338 19.6079 32.6345 19.9662 32.8291 20.3246C33.034 19.7336 33.2171 19.153 33.3783 18.5855C32.8062 18.4414 32.2119 18.3097 31.5976 18.1916ZM34.0353 15.6574C32.5619 15.2898 30.9757 15.0022 29.3084 14.8057C28.3045 13.46 27.2624 12.2301 26.2073 11.1379C26.3806 10.9974 26.5532 10.862 26.7247 10.7319C28.1165 9.67678 29.385 9.01717 30.4482 8.72971C31.5036 8.44436 32.241 8.55077 32.75 8.84465C33.259 9.13853 33.7199 9.72393 34.0004 10.7806C34.2831 11.8451 34.3461 13.2734 34.1282 15.0063C34.1014 15.2199 34.0704 15.437 34.0353 15.6574ZM36.2426 19.4806C35.8243 20.9404 35.2802 22.4579 34.6167 24.0001C35.2802 25.5423 35.8243 27.0597 36.2426 28.5195C36.451 28.4397 36.6545 28.358 36.8529 28.2745C38.4626 27.5967 39.6681 26.828 40.4486 26.051C41.2235 25.2797 41.5 24.5878 41.5 24.0001C41.5 23.4123 41.2235 22.7205 40.4486 21.9492C39.6681 21.1722 38.4626 20.4034 36.8529 19.7257C36.6545 19.6421 36.451 19.5604 36.2426 19.4806ZM36.9298 31.4651C37.3036 31.3291 37.6663 31.1871 38.0171 31.0394C39.8458 30.2694 41.4228 29.3143 42.5651 28.1771C43.7132 27.0342 44.5 25.6215 44.5 24.0001C44.5 22.3787 43.7132 20.966 42.5651 19.8231C41.4228 18.6859 39.8458 17.7307 38.0171 16.9608C37.6663 16.8131 37.3036 16.6711 36.9298 16.5351C36.9989 16.1433 37.0573 15.7583 37.1048 15.3806C37.3523 13.4119 37.3136 11.5686 36.9 10.0107C36.4842 8.44501 35.6542 7.05726 34.25 6.24657C32.8458 5.43589 31.229 5.41088 29.6652 5.8337C28.1091 6.25442 26.4935 7.14259 24.9123 8.34126C24.609 8.57123 24.3047 8.81433 24 9.07004C23.6953 8.81433 23.391 8.57122 23.0877 8.34125C21.5065 7.14258 19.8909 6.25441 18.3348 5.83369C16.771 5.41087 15.1542 5.43588 13.75 6.24656C12.3458 7.05725 11.5158 8.445 11.1 10.0107C10.6864 11.5686 10.6477 13.4119 10.8952 15.3806C10.9427 15.7582 11.0011 16.1433 11.0702 16.5351C10.6964 16.6711 10.3337 16.8131 9.98289 16.9608C8.15424 17.7307 6.57722 18.6859 5.43486 19.8231C4.28678 20.966 3.5 22.3787 3.5 24.0001C3.5 25.6215 4.28678 27.0342 5.43486 28.1771C6.57722 29.3143 8.15424 30.2694 9.98289 31.0394C10.3337 31.1871 10.6964 31.3291 11.0702 31.4651C11.0011 31.8568 10.9427 32.2419 10.8952 32.6196C10.6477 34.5882 10.6864 36.4316 11.1 37.9895C11.5158 39.5552 12.3458 40.9429 13.75 41.7536C15.1542 42.5643 16.771 42.5893 18.3348 42.1665C19.8909 41.7458 21.5065 40.8576 23.0877 39.6589C23.391 39.429 23.6953 39.1859 24 38.9301C24.3047 39.1858 24.609 39.4289 24.9123 39.6589C26.4935 40.8576 28.1091 41.7458 29.6652 42.1665C31.229 42.5893 32.8458 42.5643 34.25 41.7536C35.6542 40.9429 36.4842 39.5552 36.9 37.9895C37.3136 36.4315 37.3523 34.5882 37.1048 32.6196C37.0573 32.2419 36.9989 31.8568 36.9298 31.4651ZM33.3783 29.4146C33.2171 28.8471 33.034 28.2666 32.8291 27.6756C32.6345 28.0339 32.4338 28.3922 32.2272 28.7501C32.0206 29.1079 31.8107 29.4608 31.5976 29.8086C32.2119 29.6905 32.8062 29.5588 33.3783 29.4146ZM29.3084 33.1944C30.9757 32.9979 32.5619 32.7104 34.0353 32.3428C34.0704 32.5631 34.1014 32.7802 34.1282 32.9939C34.3461 34.7268 34.2831 36.1551 34.0004 37.2196C33.7199 38.2762 33.259 38.8616 32.75 39.1555C32.241 39.4494 31.5036 39.5558 30.4482 39.2705C29.385 38.983 28.1165 38.3234 26.7247 37.2683C26.5532 37.1382 26.3806 37.0028 26.2073 36.8622C27.2624 35.77 28.3045 34.5401 29.3084 33.1944ZM25.2315 33.4841C24.8238 33.4947 24.4132 33.5001 24 33.5001C23.5868 33.5001 23.1762 33.4947 22.7685 33.4841C23.1779 33.957 23.5891 34.4059 24 34.8292C24.4109 34.4059 24.8221 33.957 25.2315 33.4841ZM16.4024 29.8086C16.1893 29.4608 15.9794 29.1079 15.7728 28.7501C15.5662 28.3922 15.3655 28.0339 15.1709 27.6756C14.966 28.2666 14.7829 28.8471 14.6217 29.4146C15.1938 29.5588 15.7881 29.6905 16.4024 29.8086ZM13.9647 32.3428C15.4381 32.7104 17.0243 32.9979 18.6916 33.1944C19.6955 34.5401 20.7376 35.77 21.7927 36.8622C21.6194 37.0028 21.4468 37.1382 21.2753 37.2683C19.8835 38.3234 18.615 38.983 17.5518 39.2705C16.4964 39.5558 15.759 39.4494 15.25 39.1555C14.741 38.8617 14.2801 38.2763 13.9996 37.2196C13.7169 36.1551 13.6539 34.7268 13.8718 32.9939C13.8986 32.7802 13.9296 32.5631 13.9647 32.3428ZM11.7574 28.5195C12.1757 27.0597 12.7198 25.5423 13.3833 24.0001C12.7198 22.4579 12.1757 20.9405 11.7574 19.4806C11.549 19.5604 11.3455 19.6421 11.1471 19.7257C9.53738 20.4034 8.33191 21.1722 7.55137 21.9492C6.77655 22.7205 6.5 23.4123 6.5 24.0001C6.5 24.5878 6.77655 25.2797 7.55137 26.051C8.33191 26.828 9.53738 27.5967 11.1471 28.2745C11.3455 28.358 11.549 28.4397 11.7574 28.5195Z" fill="#7B7D85"/>
</svg>
