<svg width="48" height="48" viewBox="0 0 48 48" fill="none" xmlns="http://www.w3.org/2000/svg">
<path fill-rule="evenodd" clip-rule="evenodd" d="M40 8.39331C40.4641 8.39331 40.9093 8.57769 41.2374 8.90587C41.5656 9.23406 41.75 9.67918 41.75 10.1433V16.3941C41.75 17.3606 40.9665 18.1441 40 18.1441C39.0335 18.1441 38.25 17.3606 38.25 16.3941V11.8933H30.2623L28.1374 14.6448C27.806 15.0738 27.2945 15.3251 26.7524 15.3251L9.77065 15.3251L9.75 24.7572V24.7592V36.1066H38.25V25.428C37.8033 25.111 37.5118 24.5895 37.5118 24C37.5118 23.0335 38.2953 22.25 39.2618 22.25H39.7926C40.7347 22.25 41.5029 22.9945 41.5411 23.9272C41.6744 24.1742 41.75 24.4568 41.75 24.7572V37.8566C41.75 38.3207 41.5656 38.7658 41.2374 39.094C40.9093 39.4222 40.4641 39.6066 40 39.6066H8C7.0335 39.6066 6.25 38.8231 6.25 37.8566L6.25 24.7572L6.25001 24.7533L6.27449 13.5713C6.2766 12.6063 7.05948 11.8251 8.02448 11.8251L25.8927 11.8251L28.0177 9.07366C28.349 8.64458 28.8606 8.39331 29.4027 8.39331H40ZM17.5 22.25C16.5335 22.25 15.75 23.0335 15.75 24C15.75 24.9665 16.5335 25.75 17.5 25.75H18.0308C18.9973 25.75 19.7808 24.9665 19.7808 24C19.7808 23.0335 18.9973 22.25 18.0308 22.25H17.5ZM24.4001 22.25C23.4336 22.25 22.6501 23.0335 22.6501 24C22.6501 24.9665 23.4336 25.75 24.4001 25.75H25.4616C26.4281 25.75 27.2116 24.9665 27.2116 24C27.2116 23.0335 26.4281 22.25 25.4616 22.25H24.4001ZM31.8309 22.25C30.8644 22.25 30.0809 23.0335 30.0809 24C30.0809 24.9665 30.8644 25.75 31.8309 25.75H32.8925C33.859 25.75 34.6425 24.9665 34.6425 24C34.6425 23.0335 33.859 22.25 32.8925 22.25H31.8309Z" fill="#62646A"/>
</svg>
