<svg width="48" height="48" viewBox="0 0 48 48" fill="none" xmlns="http://www.w3.org/2000/svg">
<path d="M40 36C40 38.2091 38.2091 40 36 40C33.7909 40 32 38.2091 32 36C32 33.7909 33.7909 32 36 32C38.2091 32 40 33.7909 40 36ZM40 36L40 15.4278M16 36C16 38.2091 14.2091 40 12 40C9.79086 40 8 38.2091 8 36C8 33.7909 9.79086 32 12 32C14.2091 32 16 33.7909 16 36ZM16 36L16 15.4278M16 15.4278V8L40 8V15.4278M16 15.4278L40 15.4278" stroke="#62646A" stroke-width="3.5" stroke-linecap="round" stroke-linejoin="round"/>
</svg>
