<svg width="48" height="48" viewBox="0 0 48 48" fill="none" xmlns="http://www.w3.org/2000/svg">
<path d="M7.9884 29.5812C11.0822 26.7105 7.9884 18.897 12.2672 13.087M17.8653 8.67511C26.3637 5.30606 30.9873 7.56328 34.6427 10.616C40.3017 15.3421 41.251 26.7183 38.5952 36.7279M13.3391 37.1286C13.3391 37.1286 15.9398 33.1123 17.0237 30.1164C18.8255 25.1362 17.0237 21.368 19.1412 18.1145C20.0358 16.7399 22.0922 14.9344 24.6686 14.9344C28.4794 14.9344 30.8936 16.6264 32.2979 21.368M32.2979 28.1694C32.2979 34.811 31.293 37.1286 28.4794 41.0019M25.27 23.7444C25.27 33.3415 23.9239 35.0583 19.9043 41.0019" stroke="#62646A" stroke-width="3.5" stroke-linecap="round" stroke-linejoin="round"/>
</svg>
