<svg width="48" height="48" viewBox="0 0 48 48" fill="none" xmlns="http://www.w3.org/2000/svg">
<path d="M16 37.8564C12.9498 36.0953 10.5658 33.3769 9.21797 30.1229C7.8701 26.8689 7.63363 23.261 8.54522 19.8589C9.45682 16.4567 11.4655 13.4505 14.2599 11.3063C17.0542 9.16216 20.4779 7.99996 24 7.99996C27.5222 7.99996 30.9459 9.16216 33.7402 11.3063C36.5345 13.4505 38.5433 16.4567 39.4549 19.8589C40.3665 23.261 40.13 26.8689 38.7821 30.1229C37.4342 33.3769 35.0503 36.0953 32 37.8564L27.2 29.5425C28.4201 28.8381 29.3737 27.7507 29.9129 26.4491C30.452 25.1475 30.5466 23.7044 30.182 22.3435C29.8173 20.9827 29.0138 19.7802 27.8961 18.9225C26.7784 18.0648 25.4089 17.6 24 17.6C22.5912 17.6 21.2217 18.0648 20.104 18.9225C18.9862 19.7802 18.1828 20.9827 17.8181 22.3435C17.4535 23.7044 17.5481 25.1475 18.0872 26.4491C18.6264 27.7507 19.5799 28.8381 20.8 29.5425L16 37.8564Z" stroke="#62646A" stroke-width="3.5" stroke-linecap="round" stroke-linejoin="round"/>
</svg>
