<svg width="48" height="48" viewBox="0 0 48 48" fill="none" xmlns="http://www.w3.org/2000/svg">
<path fill-rule="evenodd" clip-rule="evenodd" d="M18.3362 12.6677C19.7788 11.2251 20.5875 9.73072 21.0521 8.8722L21.0521 8.87217C21.1854 8.62586 21.2903 8.43188 21.3738 8.30649C21.5658 8.01813 21.698 7.90819 21.9085 7.81799C22.1947 7.69535 22.754 7.56394 23.9038 7.56396C25.0538 7.56399 25.6106 7.69566 25.8938 7.81743C26.1003 7.90626 26.2298 8.01392 26.4199 8.30175C26.5027 8.42724 26.6063 8.62025 26.7377 8.86495L26.7377 8.86498C27.1987 9.72394 28.0016 11.2198 29.4495 12.6677C30.583 13.8012 31.775 14.3073 32.9753 14.434C33.8795 14.5294 34.7827 14.3913 35.3939 14.2978L35.394 14.2978C35.5039 14.281 35.6044 14.2656 35.6937 14.2533C36.3972 14.1564 36.6897 14.1819 36.9092 14.2767C37.0959 14.3573 37.5194 14.6205 38.0735 15.7039C38.6513 16.8336 38.6981 17.4171 38.6691 17.6982C38.6433 17.9483 38.5393 18.1855 38.1882 18.6211C38.0966 18.7348 37.9858 18.8607 37.8625 19.0009L37.8623 19.0011C37.0637 19.9087 35.742 21.411 35.742 24C35.742 26.6758 37.3064 28.0983 38.1557 28.8705C38.2956 28.9977 38.4161 29.1073 38.507 29.2019C38.8371 29.5456 38.8964 29.7078 38.909 29.9057C38.928 30.2058 38.8368 30.8889 38.0937 32.2587C37.3503 33.6292 36.856 33.9966 36.6668 34.0919C36.566 34.1427 36.4549 34.1839 35.9546 34.0628C35.8907 34.0474 35.8085 34.0248 35.7112 33.998L35.7111 33.9979L35.7111 33.9979C35.2273 33.8648 34.3692 33.6287 33.5284 33.6578C32.3197 33.6997 31.1648 34.213 30.0453 35.3325C29.0802 36.2976 28.4305 37.1758 27.9265 37.9253C27.7222 38.2292 27.5626 38.477 27.4259 38.6892L27.4258 38.6893L27.4258 38.6893C27.1921 39.0521 27.0253 39.3111 26.8164 39.5689C26.5681 39.8752 26.359 40.0404 26.0437 40.1639C25.674 40.3086 25.0488 40.4362 23.9038 40.4362C22.747 40.4362 22.1872 40.3059 21.9025 40.1846C21.6965 40.0969 21.5693 39.9918 21.3811 39.7077C21.2983 39.5829 21.1949 39.3907 21.0635 39.1467C20.6017 38.2891 19.7954 36.7917 18.3362 35.3325C17.185 34.1812 15.9701 33.6849 14.7491 33.5857C13.8465 33.5124 12.9395 33.6756 12.3333 33.7846C12.218 33.8053 12.1136 33.8241 12.0222 33.8389C11.323 33.9523 11.0612 33.922 10.876 33.8388C10.7131 33.7657 10.2885 33.4989 9.73266 32.3376C9.15581 31.1324 9.10301 30.5037 9.13539 30.1926C9.1629 29.9283 9.26723 29.699 9.60184 29.2933C9.69271 29.1831 9.80389 29.0606 9.9282 28.9236L9.92823 28.9235C10.7198 28.0512 12.0437 26.5923 12.0437 24.0001C12.0437 21.4056 10.6967 19.9241 9.89454 19.0418L9.89453 19.0418C9.76836 18.903 9.65567 18.7791 9.56381 18.6679C9.21919 18.251 9.11948 18.0237 9.09493 17.7748C9.06616 17.483 9.11939 16.8753 9.71558 15.6972C10.2895 14.5631 10.7249 14.2862 10.9109 14.2042C11.1185 14.1126 11.396 14.0855 12.0867 14.1905C12.1774 14.2043 12.2807 14.2219 12.3947 14.2412C12.9969 14.3433 13.8962 14.4958 14.7908 14.4149C15.9989 14.3058 17.1974 13.8065 18.3362 12.6677ZM23.9038 4.06396C22.5608 4.06393 21.4516 4.20604 20.5301 4.60083C19.5329 5.02807 18.9181 5.67948 18.4605 6.36672C18.1538 6.82746 17.9374 7.23064 17.7279 7.62114L17.7279 7.62115C17.3058 8.4077 16.9114 9.14276 15.8613 10.1928C15.2862 10.768 14.8459 10.8957 14.4759 10.9291C14.0715 10.9657 13.7088 10.9066 13.1333 10.813L13.1333 10.813L13.1333 10.813C12.9772 10.7876 12.8055 10.7596 12.6131 10.7304C11.8325 10.6116 10.6848 10.4786 9.49857 11.0018C8.29091 11.5344 7.36402 12.5927 6.59272 14.1168C5.84364 15.5969 5.49168 16.9002 5.61184 18.1183C5.73621 19.3793 6.33956 20.2608 6.86613 20.8979C7.06129 21.1339 7.24119 21.3394 7.40489 21.5264L7.40491 21.5264C8.13581 22.3613 8.54369 22.8272 8.54369 24.0001C8.54369 25.1755 8.14757 25.6284 7.43106 26.4478L7.431 26.4478C7.27038 26.6315 7.09367 26.8336 6.90171 27.0663C6.37739 27.702 5.78481 28.5753 5.65419 29.8303C5.52844 31.0384 5.85629 32.3457 6.57563 33.8487C7.31601 35.3956 8.2254 36.4854 9.44255 37.0318C10.6374 37.5682 11.8016 37.4204 12.5824 37.2938C12.7772 37.2622 12.9512 37.2321 13.1093 37.2048C13.6881 37.1046 14.0558 37.041 14.4657 37.0743C14.8408 37.1047 15.2841 37.2302 15.8613 37.8073C16.9236 38.8696 17.3202 39.6113 17.7427 40.4016C17.9496 40.7886 18.1628 41.1873 18.4635 41.641C18.9192 42.3288 19.5326 42.9796 20.5313 43.4049C21.4512 43.7966 22.5602 43.9362 23.9038 43.9362C25.2592 43.9362 26.3757 43.7926 27.3198 43.4229C28.3183 43.032 28.995 42.4394 29.5354 41.7726C29.8642 41.367 30.1975 40.8516 30.4969 40.3886L30.497 40.3885C30.6143 40.2071 30.7264 40.0338 30.831 39.8782C31.2524 39.2515 31.7618 38.5658 32.5202 37.8073C33.1243 37.2032 33.4725 37.1618 33.6496 37.1557C33.9119 37.1466 34.1048 37.1979 34.4947 37.3016L34.4952 37.3018C34.6635 37.3465 34.8685 37.4011 35.1316 37.4647C35.8854 37.647 37.0141 37.8362 38.2418 37.2175C39.3813 36.6433 40.3044 35.5237 41.1702 33.9276C42.0364 32.3309 42.4824 30.95 42.4019 29.6838C42.315 28.3155 41.6381 27.4092 41.0309 26.7771C40.7631 26.4984 40.5272 26.2725 40.322 26.0759C39.5831 25.3685 39.242 25.0418 39.242 24C39.242 22.7973 39.6681 22.2954 40.4034 21.4295L40.4034 21.4295C40.5598 21.2453 40.7301 21.0447 40.9133 20.8174C41.4268 20.1803 42.0225 19.3005 42.1506 18.0571C42.2756 16.8448 41.9304 15.5586 41.1896 14.1101C40.425 12.6152 39.4994 11.583 38.297 11.0636C37.1274 10.5584 35.9909 10.6793 35.2162 10.786C35.0425 10.8099 34.8852 10.833 34.7405 10.8541C34.142 10.9417 33.7608 10.9974 33.3426 10.9533C32.9567 10.9126 32.5038 10.7722 31.9243 10.1928C30.8747 9.14317 30.4824 8.40687 30.0621 7.61796C29.8555 7.23021 29.6421 6.82975 29.3406 6.37313C28.8863 5.68515 28.2739 5.0311 27.2765 4.60216C26.3557 4.20617 25.2466 4.064 23.9038 4.06396ZM20.1187 24C20.1187 21.9156 21.8084 20.2258 23.8928 20.2258C25.9773 20.2258 27.667 21.9156 27.667 24C27.667 26.0844 25.9773 27.7742 23.8928 27.7742C21.8084 27.7742 20.1187 26.0844 20.1187 24ZM23.8928 16.7258C19.8754 16.7258 16.6187 19.9826 16.6187 24C16.6187 28.0174 19.8754 31.2742 23.8928 31.2742C27.9103 31.2742 31.167 28.0174 31.167 24C31.167 19.9826 27.9103 16.7258 23.8928 16.7258Z" fill="#62646A"/>
</svg>
