<svg width="48" height="48" viewBox="0 0 48 48" fill="none" xmlns="http://www.w3.org/2000/svg">
<path d="M12 32C14.2091 32 16 33.7909 16 36C16 38.2091 14.2091 40 12 40C9.79086 40 8 38.2091 8 36C8 33.7909 9.79086 32 12 32ZM12 32L12 28.0813M36 16C33.7909 16 32 14.2091 32 12C32 9.79086 33.7909 8 36 8C38.2091 8 40 9.79086 40 12C40 14.2091 38.2091 16 36 16ZM36 16C36 16 36 22.3632 29.0552 22.3632C12 22.3632 12 28.0813 12 28.0813M12 16C9.79086 16 8 14.2091 8 12C8 9.79086 9.79086 8 12 8C14.2091 8 16 9.79086 16 12C16 14.2091 14.2091 16 12 16ZM12 16L12 28.0813" stroke="#62646A" stroke-width="3.5" stroke-linecap="round" stroke-linejoin="round"/>
</svg>
