<svg width="48" height="48" viewBox="0 0 48 48" fill="none" xmlns="http://www.w3.org/2000/svg">
<path d="M17 35.3999C17 37.8852 14.9853 39.8999 12.5 39.8999C10.0147 39.8999 8 37.8852 8 35.3999C8 32.9146 10.0147 30.8999 12.5 30.8999C14.9853 30.8999 17 32.9146 17 35.3999Z" stroke="#62646A" stroke-width="3.5" stroke-linecap="round"/>
<path fill-rule="evenodd" clip-rule="evenodd" d="M8 8.39331C7.0335 8.39331 6.25 9.17681 6.25 10.1433V29.8839C7.19871 28.8614 8.39791 28.0747 9.75 27.6212V11.8933H17.7377L19.8626 14.6448C20.194 15.0738 20.7055 15.3251 21.2477 15.3251H38.2273L38.2482 36.1066H20.8529C20.781 37.3674 20.4322 38.554 19.8662 39.6066H40C40.4644 39.6066 40.9098 39.422 41.2381 39.0934C41.5663 38.7648 41.7505 38.3193 41.75 37.8548L41.7255 13.5734C41.7246 12.6075 40.9413 11.8251 39.9755 11.8251H22.1073L19.9824 9.07366C19.651 8.64458 19.1395 8.39331 18.5973 8.39331H8Z" fill="#62646A"/>
</svg>
