<svg width="48" height="48" viewBox="0 0 48 48" fill="none" xmlns="http://www.w3.org/2000/svg">
<path d="M17 35.3999C17 37.8852 14.9853 39.8999 12.5 39.8999C10.0147 39.8999 8 37.8852 8 35.3999C8 32.9146 10.0147 30.8999 12.5 30.8999C14.9853 30.8999 17 32.9146 17 35.3999Z" stroke="#62646A" stroke-width="3.5" stroke-linecap="round"/>
<path fill-rule="evenodd" clip-rule="evenodd" d="M8.0061 8.39331C7.03961 8.39331 6.2561 9.17681 6.2561 10.1433V29.8773C7.79597 28.2213 9.99371 27.1853 12.4334 27.1853C12.6683 27.1853 12.9009 27.1949 13.1309 27.2137L13.1386 27.189H37.7666L35.5952 36.1066H20.8529C20.781 37.3674 20.4322 38.554 19.8662 39.6066H36.9702C37.7773 39.6066 38.4796 39.0547 38.6706 38.2706L41.6942 25.8531C41.8212 25.3313 41.7017 24.7801 41.3699 24.3578C41.0381 23.9356 40.5309 23.689 39.9939 23.689H11.8482C11.0809 23.689 10.4032 24.1888 10.1764 24.9218L9.7561 26.2801V11.8933H17.7438L19.8687 14.6448C20.2001 15.0738 20.7116 15.3251 21.2538 15.3251H36.4135V18.4794C36.4135 19.4459 37.197 20.2294 38.1635 20.2294C39.13 20.2294 39.9135 19.4459 39.9135 18.4794V13.5751C39.9135 12.6086 39.13 11.8251 38.1635 11.8251H22.1134L19.9885 9.07366C19.6571 8.64458 19.1456 8.39331 18.6034 8.39331H8.0061Z" fill="#62646A"/>
</svg>
