<svg width="48" height="48" viewBox="0 0 48 48" fill="none" xmlns="http://www.w3.org/2000/svg">
<path d="M17.5363 23.9697C20.4257 21.6852 24.9351 18.1198 24.9351 18.1198M24.9351 18.1198L29.9277 13.7784M24.9351 18.1198C27.2938 16.6562 33.062 13.2224 37.9593 18.1198C39.1524 19.3128 42.3175 23.9697 37.0736 29.2137L23.1844 40.6749C20.2319 42.5538 14.5153 43.0169 11.3742 38.796C9.3746 36.1091 9.0341 33.2503 10.5536 31.0796M30.6614 23.9697L23.9181 29.2137M23.9181 29.2137L18.2701 34.2152M23.9181 29.2137C20.6069 32.1459 13.8551 33.1923 9.87647 29.2137C7.59705 26.9343 7.16143 22.2004 9.87647 19.4853L24.6514 7.13831C27.6039 5.25941 33.3204 5.28843 36.4616 9.50926C38.0435 11.6349 38.9135 13.8611 37.4403 17.1759" stroke="#62646A" stroke-width="3.5" stroke-linecap="round"/>
</svg>
